<svg xmlns="http://www.w3.org/2000/svg" width="60" height="60" version="1.0" viewBox="0 0 45 45"><defs><clipPath id="a"><path d="M.672.656h44.21v44.211H.673Zm0 0"/></clipPath><clipPath id="b"><path d="M22.777.656C10.57.656.672 10.551.672 22.762c0 12.207 9.898 22.105 22.105 22.105s22.106-9.898 22.106-22.105C44.883 10.55 34.984.656 22.777.656Zm0 0"/></clipPath><clipPath id="c"><path d="M8.379 8.363h28.5v28.5h-28.5Zm0 0"/></clipPath></defs><g clip-path="url(#a)"><g clip-path="url(#b)"><path fill="#2b3e74" d="M.672.656h44.21v44.211H.673Zm0 0"/></g></g><g clip-path="url(#c)"><path fill="#fff" d="M36.95 13.129a.762.762 0 0 1 0 1.074l-4.544 4.547a.759.759 0 1 1-1.074-1.074l3.254-3.25H15.199a2.27 2.27 0 0 0-2.273 2.273v3.028c0 .421-.34.757-.758.757a.756.756 0 0 1-.758-.757v-3.028a3.788 3.788 0 0 1 3.79-3.789h19.386l-3.254-3.254a.759.759 0 0 1 .535-1.293c.211 0 .399.082.54.219ZM33.382 25.03a.759.759 0 0 0-.758.758v3.031a2.27 2.27 0 0 1-2.273 2.274H10.965l3.254-3.25a.759.759 0 1 0-1.074-1.074l-4.543 4.546a.752.752 0 0 0 0 1.07l4.543 4.548a.759.759 0 1 0 1.074-1.07l-3.254-3.255h19.387a3.788 3.788 0 0 0 3.789-3.789v-3.03a.759.759 0 0 0-.758-.759Zm0 0"/></g></svg>