<svg xmlns="http://www.w3.org/2000/svg" width="116" height="116" version="1.0" viewBox="0 0 45 45"><defs><clipPath id="a"><path d="M.254.555H44.46v44.21H.254Zm0 0"/></clipPath><clipPath id="b"><path d="M22.355.555C10.148.555.254 10.453.254 22.66c0 12.211 9.894 22.106 22.101 22.106 12.211 0 22.106-9.895 22.106-22.106C44.46 10.453 34.566.555 22.355.555Zm0 0"/></clipPath><clipPath id="c"><path d="M9.441 7.457h25.5v28.5h-25.5Zm0 0"/></clipPath></defs><g clip-path="url(#a)"><g clip-path="url(#b)"><path fill="#2b3e74" d="M.254.555H44.46v44.21H.254Zm0 0"/></g></g><g clip-path="url(#c)"><path fill="#fff" d="M34.04 12.383h-5.536v-.867c0-.266-.024-.528-.078-.79a4.05 4.05 0 0 0-3.973-3.262h-4.195a4.125 4.125 0 0 0-1.551.31 4.161 4.161 0 0 0-.7.374 4.208 4.208 0 0 0-.612.504 4.05 4.05 0 0 0-1.188 2.863v.868h-5.535a1.23 1.23 0 0 0-.473 2.367c.153.063.309.094.473.094h1.844V31.68c0 .27.027.535.082.797a3.983 3.983 0 0 0 .609 1.468c.148.22.316.426.508.614a4.05 4.05 0 0 0 1.32.883c.246.101.5.18.766.234.261.05.527.078.793.078h11.531a4.17 4.17 0 0 0 1.555-.313c.25-.101.484-.23.703-.379a4.041 4.041 0 0 0 1.5-1.824c.101-.246.18-.5.234-.761.051-.262.078-.528.078-.797V14.844h1.844a1.23 1.23 0 0 0 .473-2.367 1.23 1.23 0 0 0-.473-.094Zm-15.372-.867c0-.211.039-.414.121-.61a1.53 1.53 0 0 1 .344-.515 1.53 1.53 0 0 1 .515-.344c.196-.082.399-.121.61-.121h4.195c.211 0 .414.039.61.12a1.602 1.602 0 0 1 .863.86c.078.196.12.399.12.61v.867h-7.378ZM29.734 31.68c0 .215-.043.422-.125.617a1.614 1.614 0 0 1-.347.523 1.635 1.635 0 0 1-1.137.473H16.594a1.584 1.584 0 0 1-1.14-.473 1.545 1.545 0 0 1-.352-.523 1.584 1.584 0 0 1-.125-.617V14.844h14.757Zm0 0"/></g><path fill="#fff" d="M19.281 17.605a1.23 1.23 0 0 0-1.23 1.23v11.067a1.23 1.23 0 0 0 2.101.871 1.23 1.23 0 0 0 .36-.871V18.836a1.23 1.23 0 0 0-1.23-1.23ZM25.43 17.605c-.164 0-.32.032-.47.094a1.24 1.24 0 0 0-.668.664 1.23 1.23 0 0 0-.093.473v11.066a1.23 1.23 0 0 0 2.102.871 1.23 1.23 0 0 0 .36-.871V18.836a1.23 1.23 0 0 0-1.231-1.23Zm0 0"/></svg>