<svg xmlns="http://www.w3.org/2000/svg" xmlns:xlink="http://www.w3.org/1999/xlink" width="117" zoomAndPan="magnify" viewBox="0 0 4091.25 4091.249956" height="117" preserveAspectRatio="xMidYMid meet" version="1.0"><defs><clipPath id="34af3108c9"><path d="M 0.328125 0.15625 L 4090.097656 0.15625 L 4090.097656 4089.925781 L 0.328125 4089.925781 Z M 0.328125 0.15625 " clip-rule="nonzero"/></clipPath><clipPath id="6ac43afdd4"><path d="M 2045.210938 0.15625 C 915.851562 0.15625 0.328125 915.679688 0.328125 2045.039062 C 0.328125 3174.398438 915.851562 4089.925781 2045.210938 4089.925781 C 3174.570312 4089.925781 4090.097656 3174.398438 4090.097656 2045.039062 C 4090.097656 915.679688 3174.570312 0.15625 2045.210938 0.15625 Z M 2045.210938 0.15625 " clip-rule="nonzero"/></clipPath><clipPath id="3aa9135051"><path d="M 1000 722.457031 L 3529 722.457031 L 3529 3367.972656 L 1000 3367.972656 Z M 1000 722.457031 " clip-rule="nonzero"/></clipPath></defs><g clip-path="url(#34af3108c9)"><g clip-path="url(#6ac43afdd4)"><path fill="#cccccc" d="M 0.328125 0.15625 L 4090.097656 0.15625 L 4090.097656 4089.925781 L 0.328125 4089.925781 Z M 0.328125 0.15625 " fill-opacity="1" fill-rule="nonzero"/></g></g><g clip-path="url(#3aa9135051)"><path fill="#545454" d="M 3528.472656 1048.398438 L 3528.472656 2412.128906 C 3271.304688 2600.523438 2904.507812 2655.484375 2585.324219 2551.734375 C 2499.796875 2524.105469 2414.566406 2484.429688 2332.269531 2445.929688 C 2222.347656 2394.789062 2108.902344 2342.179688 1987.222656 2312.789062 C 1912.863281 2294.859375 1839.683594 2286.925781 1768.261719 2286.925781 C 1525.496094 2286.925781 1303.597656 2378.328125 1118.433594 2478.257812 L 1118.433594 3308.839844 C 1118.433594 3341.167969 1091.984375 3367.621094 1059.652344 3367.621094 C 1027.324219 3367.621094 1000.871094 3341.167969 1000.871094 3308.839844 L 1000.871094 781.238281 C 1000.871094 748.910156 1027.324219 722.457031 1059.652344 722.457031 C 1091.984375 722.457031 1118.433594 748.910156 1118.433594 781.238281 L 1118.433594 1107.476562 C 1359.4375 969.632812 1645.703125 846.191406 1959.890625 921.726562 C 2069.8125 948.179688 2173.265625 996.378906 2282.601562 1047.222656 C 2368.421875 1087.195312 2456.886719 1128.34375 2548.878906 1158.320312 C 2875.410156 1264.421875 3247.496094 1220.335938 3528.472656 1048.398438 Z M 3528.472656 1048.398438 " fill-opacity="1" fill-rule="nonzero"/></g></svg>