<svg xmlns="http://www.w3.org/2000/svg" xmlns:xlink="http://www.w3.org/1999/xlink" width="117" zoomAndPan="magnify" viewBox="0 0 45 44.999999" height="117" preserveAspectRatio="xMidYMid meet" version="1.0"><defs><clipPath id="625e2808a0"><path d="M 0.25 0.132812 L 44.460938 0.132812 L 44.460938 44.34375 L 0.25 44.34375 Z M 0.25 0.132812 " clip-rule="nonzero"/></clipPath><clipPath id="b41eb7b077"><path d="M 22.355469 0.132812 C 10.148438 0.132812 0.25 10.03125 0.25 22.238281 C 0.25 34.445312 10.148438 44.34375 22.355469 44.34375 C 34.5625 44.34375 44.460938 34.445312 44.460938 22.238281 C 44.460938 10.03125 34.5625 0.132812 22.355469 0.132812 Z M 22.355469 0.132812 " clip-rule="nonzero"/></clipPath><clipPath id="6a743c0722"><path d="M 9.441406 7.035156 L 34.941406 7.035156 L 34.941406 35.535156 L 9.441406 35.535156 Z M 9.441406 7.035156 " clip-rule="nonzero"/></clipPath></defs><g clip-path="url(#625e2808a0)"><g clip-path="url(#b41eb7b077)"><path fill="#7f7f7f" d="M 0.25 0.132812 L 44.460938 0.132812 L 44.460938 44.34375 L 0.25 44.34375 Z M 0.25 0.132812 " fill-opacity="1" fill-rule="nonzero"/></g></g><g clip-path="url(#6a743c0722)"><path fill="#ffffff" d="M 34.039062 11.960938 L 28.503906 11.960938 L 28.503906 11.09375 C 28.503906 10.828125 28.476562 10.5625 28.425781 10.304688 C 28.371094 10.042969 28.296875 9.789062 28.191406 9.542969 C 28.089844 9.296875 27.964844 9.066406 27.820312 8.84375 C 27.671875 8.621094 27.503906 8.417969 27.316406 8.230469 C 27.125 8.042969 26.921875 7.875 26.699219 7.726562 C 26.480469 7.578125 26.246094 7.453125 26 7.351562 C 25.753906 7.25 25.5 7.171875 25.242188 7.121094 C 24.980469 7.066406 24.714844 7.042969 24.449219 7.042969 L 20.257812 7.042969 C 19.992188 7.042969 19.726562 7.066406 19.464844 7.121094 C 19.207031 7.171875 18.953125 7.25 18.707031 7.351562 C 18.460938 7.453125 18.226562 7.578125 18.007812 7.726562 C 17.785156 7.875 17.582031 8.042969 17.394531 8.230469 C 17.203125 8.417969 17.035156 8.621094 16.890625 8.84375 C 16.742188 9.066406 16.617188 9.296875 16.515625 9.542969 C 16.414062 9.789062 16.335938 10.042969 16.28125 10.304688 C 16.230469 10.5625 16.203125 10.828125 16.203125 11.09375 L 16.203125 11.960938 L 10.667969 11.960938 C 10.507812 11.960938 10.347656 11.992188 10.199219 12.054688 C 10.046875 12.117188 9.914062 12.207031 9.800781 12.320312 C 9.683594 12.4375 9.59375 12.570312 9.535156 12.71875 C 9.472656 12.871094 9.441406 13.027344 9.441406 13.191406 C 9.441406 13.355469 9.472656 13.511719 9.535156 13.660156 C 9.59375 13.8125 9.683594 13.945312 9.800781 14.058594 C 9.914062 14.175781 10.046875 14.265625 10.199219 14.328125 C 10.347656 14.390625 10.507812 14.421875 10.667969 14.421875 L 12.515625 14.421875 L 12.515625 31.257812 C 12.515625 31.527344 12.542969 31.789062 12.59375 32.050781 C 12.644531 32.316406 12.722656 32.570312 12.828125 32.816406 C 12.929688 33.0625 13.054688 33.296875 13.203125 33.519531 C 13.351562 33.742188 13.519531 33.949219 13.710938 34.136719 C 13.898438 34.324219 14.105469 34.496094 14.328125 34.644531 C 14.550781 34.792969 14.785156 34.917969 15.03125 35.019531 C 15.28125 35.121094 15.535156 35.199219 15.796875 35.25 C 16.058594 35.304688 16.324219 35.328125 16.589844 35.328125 L 28.121094 35.328125 C 28.390625 35.328125 28.652344 35.300781 28.914062 35.25 C 29.179688 35.199219 29.433594 35.121094 29.679688 35.015625 C 29.925781 34.914062 30.160156 34.789062 30.382812 34.640625 C 30.605469 34.492188 30.808594 34.324219 31 34.136719 C 31.1875 33.945312 31.355469 33.742188 31.503906 33.519531 C 31.652344 33.296875 31.777344 33.0625 31.882812 32.816406 C 31.984375 32.566406 32.0625 32.3125 32.113281 32.050781 C 32.167969 31.789062 32.191406 31.523438 32.191406 31.257812 L 32.191406 14.421875 L 34.039062 14.421875 C 34.199219 14.421875 34.359375 14.390625 34.507812 14.328125 C 34.660156 14.265625 34.792969 14.175781 34.90625 14.058594 C 35.023438 13.945312 35.113281 13.8125 35.175781 13.660156 C 35.238281 13.511719 35.269531 13.355469 35.269531 13.191406 C 35.269531 13.027344 35.238281 12.871094 35.175781 12.71875 C 35.113281 12.570312 35.023438 12.4375 34.90625 12.320312 C 34.792969 12.207031 34.660156 12.117188 34.507812 12.054688 C 34.359375 11.992188 34.199219 11.960938 34.039062 11.960938 Z M 18.664062 11.09375 C 18.664062 10.882812 18.703125 10.679688 18.785156 10.484375 C 18.867188 10.289062 18.980469 10.117188 19.128906 9.96875 C 19.28125 9.816406 19.453125 9.703125 19.648438 9.621094 C 19.84375 9.542969 20.046875 9.5 20.257812 9.5 L 24.449219 9.5 C 24.660156 9.5 24.863281 9.542969 25.058594 9.621094 C 25.253906 9.703125 25.425781 9.816406 25.578125 9.96875 C 25.726562 10.117188 25.839844 10.289062 25.921875 10.484375 C 26.003906 10.679688 26.042969 10.882812 26.042969 11.09375 L 26.042969 11.960938 L 18.664062 11.960938 Z M 29.734375 31.257812 C 29.730469 31.472656 29.691406 31.675781 29.609375 31.875 C 29.527344 32.070312 29.410156 32.246094 29.257812 32.394531 C 29.109375 32.546875 28.933594 32.664062 28.738281 32.746094 C 28.539062 32.828125 28.335938 32.867188 28.121094 32.871094 L 16.589844 32.871094 C 16.378906 32.871094 16.171875 32.828125 15.972656 32.746094 C 15.777344 32.664062 15.601562 32.546875 15.449219 32.398438 C 15.296875 32.246094 15.179688 32.074219 15.097656 31.875 C 15.015625 31.675781 14.976562 31.472656 14.972656 31.257812 L 14.972656 14.421875 L 29.734375 14.421875 Z M 29.734375 31.257812 " fill-opacity="1" fill-rule="nonzero"/></g><path fill="#ffffff" d="M 19.277344 17.183594 C 19.117188 17.183594 18.957031 17.210938 18.808594 17.273438 C 18.65625 17.335938 18.523438 17.425781 18.410156 17.542969 C 18.292969 17.65625 18.203125 17.789062 18.144531 17.941406 C 18.082031 18.089844 18.050781 18.25 18.050781 18.410156 L 18.050781 29.480469 C 18.050781 29.644531 18.082031 29.800781 18.144531 29.953125 C 18.203125 30.101562 18.292969 30.234375 18.410156 30.351562 C 18.523438 30.464844 18.65625 30.554688 18.808594 30.617188 C 18.957031 30.679688 19.117188 30.710938 19.277344 30.710938 C 19.441406 30.710938 19.597656 30.679688 19.75 30.617188 C 19.898438 30.554688 20.035156 30.464844 20.148438 30.351562 C 20.265625 30.234375 20.351562 30.101562 20.414062 29.953125 C 20.476562 29.800781 20.507812 29.644531 20.507812 29.480469 L 20.507812 18.410156 C 20.507812 18.25 20.476562 18.089844 20.414062 17.941406 C 20.351562 17.789062 20.265625 17.65625 20.148438 17.542969 C 20.035156 17.425781 19.898438 17.335938 19.75 17.273438 C 19.597656 17.210938 19.441406 17.183594 19.277344 17.183594 Z M 19.277344 17.183594 " fill-opacity="1" fill-rule="nonzero"/><path fill="#ffffff" d="M 25.429688 17.183594 C 25.265625 17.183594 25.109375 17.210938 24.957031 17.273438 C 24.808594 17.335938 24.675781 17.425781 24.558594 17.542969 C 24.445312 17.65625 24.355469 17.789062 24.292969 17.941406 C 24.230469 18.089844 24.199219 18.25 24.199219 18.410156 L 24.199219 29.480469 C 24.199219 29.644531 24.230469 29.800781 24.292969 29.953125 C 24.355469 30.101562 24.445312 30.234375 24.558594 30.351562 C 24.675781 30.464844 24.808594 30.554688 24.957031 30.617188 C 25.109375 30.679688 25.265625 30.710938 25.429688 30.710938 C 25.589844 30.710938 25.75 30.679688 25.898438 30.617188 C 26.050781 30.554688 26.183594 30.464844 26.296875 30.351562 C 26.414062 30.234375 26.503906 30.101562 26.566406 29.953125 C 26.628906 29.800781 26.660156 29.644531 26.660156 29.480469 L 26.660156 18.410156 C 26.660156 18.25 26.628906 18.089844 26.566406 17.941406 C 26.503906 17.789062 26.414062 17.65625 26.296875 17.542969 C 26.183594 17.425781 26.050781 17.335938 25.898438 17.273438 C 25.75 17.210938 25.589844 17.183594 25.429688 17.183594 Z M 25.429688 17.183594 " fill-opacity="1" fill-rule="nonzero"/></svg>