<svg xmlns="http://www.w3.org/2000/svg" xmlns:xlink="http://www.w3.org/1999/xlink" width="117" zoomAndPan="magnify" viewBox="0 0 55.5 55.499996" height="117" preserveAspectRatio="xMidYMid meet" version="1.0"><defs><clipPath id="35fe0517e0"><path d="M 0.238281 0.0898438 L 54.574219 0.0898438 L 54.574219 54.425781 L 0.238281 54.425781 Z M 0.238281 0.0898438 " clip-rule="nonzero"/></clipPath><clipPath id="3d1ad187d6"><path d="M 54.574219 27.257812 C 54.574219 12.253906 42.410156 0.0898438 27.40625 0.0898438 C 12.402344 0.0898438 0.238281 12.253906 0.238281 27.257812 C 0.238281 42.261719 12.402344 54.425781 27.40625 54.425781 C 42.410156 54.425781 54.574219 42.261719 54.574219 27.257812 Z M 54.574219 27.257812 " clip-rule="nonzero"/></clipPath><clipPath id="14cbcf3e07"><path d="M 14.730469 7.8125 L 26.789062 7.8125 L 26.789062 24.621094 L 14.730469 24.621094 Z M 14.730469 7.8125 " clip-rule="nonzero"/></clipPath><clipPath id="01e73f84bd"><path d="M 18 7.8125 L 40.101562 7.8125 L 40.101562 46.558594 L 18 46.558594 Z M 18 7.8125 " clip-rule="nonzero"/></clipPath></defs><g clip-path="url(#35fe0517e0)"><g clip-path="url(#3d1ad187d6)"><path fill="#7f7f7f" d="M 54.574219 0.0898438 L 54.574219 54.425781 L 0.238281 54.425781 L 0.238281 0.0898438 Z M 54.574219 0.0898438 " fill-opacity="1" fill-rule="nonzero"/></g></g><g clip-path="url(#14cbcf3e07)"><path fill="#ffffff" d="M 20.289062 10.148438 C 22.003906 10.136719 23.433594 11.558594 23.433594 13.277344 C 23.429688 15 22.046875 16.414062 20.355469 16.417969 C 18.613281 16.421875 17.148438 14.976562 17.167969 13.277344 C 17.191406 11.574219 18.601562 10.160156 20.289062 10.148438 Z M 17.207031 17.941406 C 18.136719 18.566406 19.167969 18.941406 20.242188 19.214844 C 21.621094 19.566406 22.675781 20.289062 23.261719 21.640625 C 23.675781 22.601562 24.117188 23.550781 24.5625 24.5 L 26.785156 20.136719 C 26.355469 19.261719 25.878906 18.285156 25.511719 17.496094 C 25.371094 17.199219 25.476562 16.882812 25.503906 16.574219 C 25.59375 15.402344 25.789062 14.238281 25.738281 13.0625 C 25.628906 10.269531 23.925781 8.382812 21.089844 7.886719 C 18.65625 7.464844 16.152344 8.894531 15.179688 11.257812 C 14.140625 13.800781 14.929688 16.402344 17.207031 17.941406 " fill-opacity="1" fill-rule="nonzero"/></g><g clip-path="url(#01e73f84bd)"><path fill="#ffffff" d="M 34.542969 10.148438 C 36.230469 10.160156 37.640625 11.574219 37.660156 13.277344 C 37.683594 14.976562 36.214844 16.421875 34.476562 16.417969 C 32.78125 16.414062 31.398438 15 31.398438 13.277344 C 31.394531 11.558594 32.828125 10.136719 34.542969 10.148438 Z M 27.417969 27.347656 C 27.417969 27.347656 27.414062 27.347656 27.414062 27.347656 C 26.574219 27.347656 25.890625 26.664062 25.890625 25.820312 C 25.890625 24.980469 26.574219 24.296875 27.414062 24.296875 C 27.414062 24.296875 27.414062 24.300781 27.414062 24.300781 C 27.414062 24.300781 27.417969 24.296875 27.417969 24.296875 C 28.257812 24.296875 28.941406 24.980469 28.941406 25.820312 C 28.941406 26.664062 28.257812 27.347656 27.417969 27.347656 Z M 29.320312 17.496094 C 28.714844 18.789062 27.425781 21.40625 27.414062 21.382812 L 25.082031 26.324219 C 23.066406 30.640625 21.039062 34.953125 19.316406 39.402344 C 18.820312 40.679688 18.304688 41.957031 18.113281 43.328125 C 18.015625 44.0625 18.007812 44.800781 18.246094 45.515625 C 18.457031 46.148438 18.847656 46.59375 19.554688 46.6875 C 19.863281 46.726562 20.035156 46.640625 20.171875 46.335938 C 21.644531 43.105469 23.132812 39.882812 24.613281 36.65625 C 25.464844 34.804688 27.410156 30.664062 27.414062 30.675781 C 27.421875 30.664062 29.367188 34.804688 30.21875 36.65625 C 31.699219 39.882812 33.1875 43.105469 34.65625 46.335938 C 34.796875 46.640625 34.96875 46.726562 35.273438 46.6875 C 35.984375 46.59375 36.375 46.148438 36.585938 45.515625 C 36.824219 44.800781 36.816406 44.0625 36.714844 43.328125 C 36.527344 41.957031 36.011719 40.679688 35.515625 39.402344 C 33.792969 34.953125 31.765625 30.640625 29.75 26.324219 C 29.632812 26.070312 29.617188 25.871094 29.742188 25.609375 C 30.367188 24.292969 30.992188 22.976562 31.570312 21.640625 C 32.15625 20.289062 33.210938 19.566406 34.585938 19.214844 C 35.660156 18.941406 36.695312 18.566406 37.625 17.941406 C 39.902344 16.402344 40.691406 13.800781 39.648438 11.257812 C 38.679688 8.894531 36.175781 7.464844 33.742188 7.886719 C 30.90625 8.382812 29.203125 10.269531 29.089844 13.0625 C 29.042969 14.238281 29.234375 15.402344 29.328125 16.574219 C 29.351562 16.882812 29.457031 17.199219 29.320312 17.496094 " fill-opacity="1" fill-rule="nonzero"/></g></svg>