<svg xmlns="http://www.w3.org/2000/svg" width="117" height="117" version="1.0" viewBox="0 0 45 45"><defs><clipPath id="a"><path d="M.29.684h44.175v44.171H.289Zm0 0"/></clipPath><clipPath id="b"><path d="M44.465 22.77c0-12.2-9.89-22.086-22.086-22.086C10.179.684.289 10.57.289 22.77c0 12.199 9.89 22.085 22.09 22.085 12.195 0 22.086-9.886 22.086-22.085Zm0 0"/></clipPath><clipPath id="c"><path d="M12.07 6.96h9.805v13.665H12.07Zm0 0"/></clipPath><clipPath id="d"><path d="M14.703 6.96H32.7v31.5H14.703Zm0 0"/></clipPath></defs><g clip-path="url(#a)"><g clip-path="url(#b)"><path fill="#2b3e74" d="M44.465.684v44.171H.289V.684Zm0 0"/></g></g><g clip-path="url(#c)"><path fill="#fff" d="M16.59 8.86c1.394-.008 2.558 1.148 2.555 2.542 0 1.403-1.125 2.551-2.504 2.555-1.414.004-2.606-1.172-2.586-2.555.015-1.382 1.164-2.53 2.535-2.543Zm-2.504 6.331c.754.512 1.594.817 2.469 1.04 1.117.285 1.976.87 2.453 1.972.336.781.695 1.555 1.058 2.324l1.805-3.547c-.351-.71-.734-1.507-1.035-2.148-.113-.242-.027-.5-.008-.75.074-.95.23-1.898.195-2.855-.093-2.27-1.476-3.801-3.78-4.207-1.981-.344-4.016.816-4.805 2.742-.848 2.066-.208 4.18 1.648 5.43"/></g><g clip-path="url(#d)"><path fill="#fff" d="M28.18 8.86c1.37.011 2.515 1.16 2.535 2.542.015 1.383-1.176 2.559-2.59 2.555-1.379-.004-2.504-1.152-2.504-2.555A2.564 2.564 0 0 1 28.18 8.86Zm-5.797 13.98a1.239 1.239 0 0 1 0-2.477 1.24 1.24 0 1 1 0 2.477Zm1.547-8.008c-.489 1.05-1.54 3.18-1.547 3.16l-1.899 4.016c-1.636 3.512-3.285 7.02-4.687 10.633-.402 1.039-.82 2.078-.977 3.191-.082.598-.086 1.2.106 1.781.172.516.492.875 1.066.953.25.032.39-.043.504-.285 1.195-2.629 2.402-5.25 3.61-7.87a451.766 451.766 0 0 1 2.277-4.864c.008-.012 1.59 3.36 2.281 4.863 1.203 2.621 2.41 5.242 3.606 7.871.113.242.253.317.503.285.575-.078.895-.437 1.067-.953.191-.582.187-1.183.105-1.781-.152-1.113-.574-2.152-.976-3.191-1.399-3.614-3.047-7.121-4.688-10.633-.093-.203-.11-.367-.008-.578.508-1.07 1.016-2.14 1.489-3.227.476-1.101 1.332-1.687 2.453-1.973.87-.222 1.715-.527 2.469-1.039 1.851-1.25 2.492-3.363 1.644-5.43-.785-1.925-2.824-3.085-4.8-2.741-2.31.406-3.692 1.937-3.782 4.207-.039.957.117 1.906.192 2.855.019.25.105.508-.008.75"/></g></svg>