<svg xmlns="http://www.w3.org/2000/svg" xmlns:xlink="http://www.w3.org/1999/xlink" width="60" zoomAndPan="magnify" viewBox="0 0 45 44.999999" height="60" preserveAspectRatio="xMidYMid meet" version="1.0"><defs><clipPath id="a50a1bf01f"><path d="M 0.742188 0.28125 L 44.953125 0.28125 L 44.953125 44.492188 L 0.742188 44.492188 Z M 0.742188 0.28125 " clip-rule="nonzero"/></clipPath><clipPath id="bfba99417d"><path d="M 22.847656 0.28125 C 10.640625 0.28125 0.742188 10.179688 0.742188 22.386719 C 0.742188 34.59375 10.640625 44.492188 22.847656 44.492188 C 35.054688 44.492188 44.953125 34.59375 44.953125 22.386719 C 44.953125 10.179688 35.054688 0.28125 22.847656 0.28125 Z M 22.847656 0.28125 " clip-rule="nonzero"/></clipPath><clipPath id="9fee74bc68"><path d="M 24 8.621094 L 36.832031 8.621094 L 36.832031 22 L 24 22 Z M 24 8.621094 " clip-rule="nonzero"/></clipPath><clipPath id="5aaaf5e1f0"><path d="M 9.082031 22 L 23 22 L 23 36.371094 L 9.082031 36.371094 Z M 9.082031 22 " clip-rule="nonzero"/></clipPath></defs><rect x="-4.5" width="54" fill="#ffffff" y="-4.5" height="53.999999" fill-opacity="1"/><g clip-path="url(#a50a1bf01f)"><g clip-path="url(#bfba99417d)"><path fill="#2b3e74" d="M 0.742188 0.28125 L 44.953125 0.28125 L 44.953125 44.492188 L 0.742188 44.492188 Z M 0.742188 0.28125 " fill-opacity="1" fill-rule="nonzero"/></g></g><g clip-path="url(#9fee74bc68)"><path fill="#ffffff" d="M 35.578125 10.519531 C 35.53125 10.097656 35.199219 9.765625 34.777344 9.71875 L 26.042969 8.746094 C 25.523438 8.695312 25.09375 9.050781 25.039062 9.550781 C 24.984375 10.050781 25.34375 10.5 25.84375 10.554688 L 32.691406 11.316406 L 24.347656 19.65625 C 23.992188 20.007812 23.992188 20.585938 24.347656 20.941406 C 24.523438 21.117188 24.757812 21.207031 24.988281 21.207031 C 25.222656 21.207031 25.453125 21.117188 25.632812 20.941406 L 33.976562 12.601562 L 34.742188 19.453125 C 34.792969 19.917969 35.1875 20.261719 35.644531 20.261719 C 35.675781 20.261719 35.710938 20.261719 35.746094 20.257812 C 36.246094 20.199219 36.605469 19.75 36.550781 19.253906 Z M 35.578125 10.519531 " fill-opacity="1" fill-rule="nonzero"/></g><g clip-path="url(#5aaaf5e1f0)"><path fill="#ffffff" d="M 20.964844 23.046875 L 11.714844 32.289062 L 10.949219 25.4375 C 10.894531 24.9375 10.457031 24.574219 9.945312 24.636719 C 9.445312 24.691406 9.085938 25.140625 9.140625 25.640625 L 10.113281 34.371094 C 10.164062 34.792969 10.496094 35.128906 10.917969 35.175781 L 19.648438 36.144531 C 19.683594 36.148438 19.71875 36.148438 19.75 36.148438 C 20.207031 36.148438 20.601562 35.804688 20.652344 35.339844 C 20.707031 34.84375 20.351562 34.394531 19.851562 34.335938 L 13 33.578125 L 22.25 24.335938 C 22.605469 23.980469 22.605469 23.402344 22.25 23.046875 C 21.894531 22.691406 21.316406 22.691406 20.964844 23.046875 Z M 20.964844 23.046875 " fill-opacity="1" fill-rule="nonzero"/></g></svg>