<svg xmlns="http://www.w3.org/2000/svg" width="116" height="116" version="1.0" viewBox="0 0 4091.25 4091.25"><defs><clipPath id="a"><path d="M.348.688h4089.765v4089.769H.348Zm0 0"/></clipPath><clipPath id="b"><path d="M2045.23.688C915.871.688.348 916.215.348 2045.57c0 1129.36 915.523 2044.887 2044.882 2044.887 1129.36 0 2044.883-915.527 2044.883-2044.887C4090.113 916.215 3174.59.688 2045.23.688Zm0 0"/></clipPath><clipPath id="c"><path d="M1000 722.988h2529v2645.516H1000Zm0 0"/></clipPath></defs><g clip-path="url(#a)"><g clip-path="url(#b)"><path fill="#ccc" d="M.348.688h4089.765v4089.769H.348Zm0 0"/></g></g><g clip-path="url(#c)"><path fill="#f44336" d="M3528.492 1048.934V2412.66c-257.168 188.395-623.965 243.356-943.148 139.606-85.528-27.625-170.762-67.305-253.055-105.805-109.922-51.14-223.367-103.75-345.047-133.14-74.36-17.93-147.539-25.864-218.96-25.864-242.766 0-464.669 91.406-649.829 191.332v830.582c0 32.328-26.45 58.781-58.781 58.781-32.328 0-58.781-26.453-58.781-58.78V781.77c0-32.329 26.453-58.782 58.78-58.782 32.333 0 58.782 26.453 58.782 58.782v326.238c241.004-137.844 527.27-261.285 841.457-185.75 109.922 26.453 213.375 74.652 322.711 125.5 85.82 39.969 174.285 81.117 266.277 111.094 326.532 106.101 698.618 62.015 979.594-109.918Zm0 0"/></g></svg>