<svg xmlns="http://www.w3.org/2000/svg" width="70" height="70" version="1.0" viewBox="0 0 52.5 52.5"><defs><clipPath id="a"><path d="M.184.059H51.77V51.64H.184Zm0 0"/></clipPath><clipPath id="b"><path d="M25.977.059C11.73.059.184 11.605.184 25.852c0 14.242 11.546 25.789 25.793 25.789 14.242 0 25.793-11.547 25.793-25.79C51.77 11.606 40.219.06 25.977.06Zm0 0"/></clipPath><clipPath id="c"><path d="M8.512 12.18h36.144V44.37H8.512Zm0 0"/></clipPath></defs><g clip-path="url(#a)"><g clip-path="url(#b)"><path d="M.184.059H51.77V51.64H.184Zm0 0"/></g></g><g clip-path="url(#c)"><path fill="#fff" d="M41.188 33.121a.902.902 0 0 1-.903.899h-13.43a2.45 2.45 0 0 0-1.714.703l-6.426 6.32-.95-5.027a2.453 2.453 0 0 0-2.41-1.996h-2.601a.902.902 0 0 1-.902-.899V16.34c0-.5.406-.902.902-.902h27.531c.496 0 .903.402.903.902Zm-.903-20.934H12.754a4.154 4.154 0 0 0-4.149 4.153V33.12c0 2.29 1.86 4.149 4.149 4.149h1.941l.856 4.523a3.166 3.166 0 0 0 5.336 1.672l6.297-6.195h13.101c2.29 0 4.149-1.86 4.149-4.149V16.34c0-2.29-1.86-4.152-4.149-4.152"/></g></svg>