<svg xmlns="http://www.w3.org/2000/svg" width="70" height="70" version="1.0" viewBox="0 0 52.5 52.5"><defs><clipPath id="a"><path d="M.363.059H51.95V51.64H.363Zm0 0"/></clipPath><clipPath id="b"><path d="M26.156.059C11.91.059.363 11.605.363 25.852c0 14.242 11.547 25.789 25.793 25.789 14.242 0 25.793-11.547 25.793-25.79C51.95 11.606 40.4.06 26.156.06Zm0 0"/></clipPath><clipPath id="c"><path d="M8.691 12.18h36.145V44.37H8.69Zm0 0"/></clipPath></defs><g clip-path="url(#a)"><g clip-path="url(#b)"><path fill="#7f7f7f" d="M.363.059H51.95V51.64H.363Zm0 0"/></g></g><g clip-path="url(#c)"><path fill="#fff" d="M41.367 33.121a.902.902 0 0 1-.902.899h-13.43a2.45 2.45 0 0 0-1.715.703l-6.425 6.32-.95-5.027a2.453 2.453 0 0 0-2.41-1.996h-2.601a.902.902 0 0 1-.903-.899V16.34c0-.5.406-.902.903-.902h27.53c.497 0 .903.402.903.902Zm-.902-20.934H12.934a4.154 4.154 0 0 0-4.149 4.153V33.12c0 2.29 1.86 4.149 4.149 4.149h1.941l.855 4.523a3.166 3.166 0 0 0 5.336 1.672l6.297-6.195h13.102c2.289 0 4.148-1.86 4.148-4.149V16.34c0-2.29-1.86-4.152-4.148-4.152"/></g></svg>