<svg xmlns="http://www.w3.org/2000/svg" width="512" height="512"><path fill="#004e7c" d="m222.391 451.768-40-136A15.001 15.001 0 0 0 168 305h-49a15 15 0 0 0-14.39 19.233l33.244 113.029c5.842 19.865 24.384 33.738 45.09 33.738H208c4.727 0 9.178-2.228 12.01-6.014a14.998 14.998 0 0 0 2.381-13.218z"/><path fill="#0181d0" d="M95 145c-52.383 0-95 42.617-95 95l95 47.5h110.721l20-47.5-20-95z"/><path fill="#005c94" d="M0 240c0 52.383 42.617 95 95 95h110.721l20-95z"/><path fill="#dbffff" d="M396.893 91.92a14.995 14.995 0 0 0-13.349-2.243L205.721 145v190l177.823 55.323A15 15 0 0 0 403 376V104a15 15 0 0 0-6.107-12.08z"/><path fill="#aeeaf5" d="M205.721 240v95l177.823 55.323A15 15 0 0 0 403 376V240z"/><path fill="#dbffff" d="m499.775 193.259-85-16A15 15 0 0 0 397 192v96a15 15 0 0 0 17.775 14.741l85-16A15 15 0 0 0 512 272v-64a15 15 0 0 0-12.225-14.741z"/><path fill="#aeeaf5" d="M397 240v48a15 15 0 0 0 17.775 14.741l85-16A15 15 0 0 0 512 272v-32z"/><path fill="#0181d0" d="M400 439c-17.673 0-32-14.327-32-32V73c0-17.673 14.327-32 32-32 17.673 0 32 14.327 32 32v334c0 17.673-14.327 32-32 32z"/><path fill="#005c94" d="M368 240v167c0 17.673 14.327 32 32 32s32-14.327 32-32V240z"/></svg>