<svg id="Layer_1" enable-background="new 0 0 512 512" height="512" viewBox="0 0 512 512" width="512" xmlns="http://www.w3.org/2000/svg"><path d="m426.412 85.587c-45.518-45.519-106.039-70.587-170.412-70.587s-124.894 25.068-170.412 70.587c-45.52 45.519-70.588 106.039-70.588 170.413s25.068 124.894 70.588 170.413c45.518 45.519 106.039 70.587 170.412 70.587s124.894-25.068 170.412-70.587c45.52-45.519 70.588-106.039 70.588-170.413s-25.068-124.894-70.588-170.413zm-170.412 379.413c-115.243 0-209-93.757-209-209s93.757-209 209-209 209 93.757 209 209-93.757 209-209 209zm78.705-265.078-56.078 56.078 56.078 56.078c6.248 6.248 6.248 16.379 0 22.627-3.124 3.125-7.219 4.687-11.313 4.687s-8.189-1.562-11.313-4.687l-56.079-56.078-56.078 56.078c-6.248 6.249-16.379 6.249-22.627 0-6.248-6.248-6.248-16.379 0-22.627l56.078-56.078-56.078-56.078c-6.248-6.248-6.248-16.379 0-22.627 6.248-6.249 16.379-6.249 22.627 0l56.078 56.078 56.078-56.078c6.248-6.249 16.379-6.249 22.627 0 6.248 6.248 6.248 16.379 0 22.627z"/></svg>