<svg xmlns="http://www.w3.org/2000/svg" width="117" height="117" version="1.0" viewBox="0 0 45 45"><defs><clipPath id="a"><path d="M.25.133h44.21v44.21H.25Zm0 0"/></clipPath><clipPath id="b"><path d="M22.355.133C10.148.133.25 10.03.25 22.238s9.898 22.106 22.105 22.106 22.106-9.899 22.106-22.106C44.46 10.031 34.563.133 22.355.133Zm0 0"/></clipPath><clipPath id="c"><path d="M9.441 7.035h25.5v28.5h-25.5Zm0 0"/></clipPath></defs><g clip-path="url(#a)"><g clip-path="url(#b)"><path fill="#7f7f7f" d="M.25.133h44.21v44.21H.25Zm0 0"/></g></g><g clip-path="url(#c)"><path fill="#fff" d="M34.04 11.96h-5.536v-.866a3.995 3.995 0 0 0-.313-1.55A4.01 4.01 0 0 0 26.7 7.727a4.032 4.032 0 0 0-2.25-.684l-4.191-.001a4.032 4.032 0 0 0-2.863 1.187c-.192.188-.36.391-.504.614a4.016 4.016 0 0 0-.375.699c-.102.246-.18.5-.235.762-.05.258-.078.523-.078.789v.867h-5.535c-.16 0-.32.031-.469.094a1.208 1.208 0 0 0-.664.664 1.23 1.23 0 0 0 0 .941c.059.152.149.285.266.399a1.21 1.21 0 0 0 .867.363h1.848v16.836c0 .27.027.531.078.793.05.265.129.52.234.765a4.05 4.05 0 0 0 2.203 2.204 4.107 4.107 0 0 0 1.559.308H28.12c.27 0 .531-.027.793-.078.266-.05.52-.129.766-.234a4.05 4.05 0 0 0 1.824-1.496c.148-.223.273-.458.379-.704a4.107 4.107 0 0 0 .308-1.558V14.422h1.848a1.21 1.21 0 0 0 .867-.363 1.16 1.16 0 0 0 .27-.399 1.23 1.23 0 0 0-1.137-1.7Zm-15.376-.866A1.59 1.59 0 0 1 20.258 9.5h4.191a1.598 1.598 0 0 1 1.594 1.594v.867h-7.379Zm11.07 20.164a1.674 1.674 0 0 1-.125.617c-.082.195-.199.371-.351.52-.149.152-.324.27-.52.351-.199.082-.402.121-.617.125H16.59c-.211 0-.418-.043-.617-.125a1.679 1.679 0 0 1-.524-.348 1.584 1.584 0 0 1-.351-.523 1.674 1.674 0 0 1-.125-.617V14.422h14.761Zm0 0"/></g><path fill="#fff" d="M19.277 17.184c-.16 0-.32.027-.468.09a1.16 1.16 0 0 0-.399.269 1.099 1.099 0 0 0-.265.398 1.21 1.21 0 0 0-.094.47v11.07a1.23 1.23 0 1 0 2.457 0V18.41c0-.161-.031-.321-.094-.47a1.15 1.15 0 0 0-.266-.398 1.199 1.199 0 0 0-.87-.36ZM25.43 17.184c-.164 0-.32.027-.473.09a1.24 1.24 0 0 0-.758 1.136v11.07a1.23 1.23 0 0 0 2.367.473 1.23 1.23 0 0 0 .094-.473V18.41a1.21 1.21 0 0 0-.363-.867 1.16 1.16 0 0 0-.399-.27 1.206 1.206 0 0 0-.468-.09Zm0 0"/></svg>