<svg xmlns="http://www.w3.org/2000/svg" width="5455" height="5455" version="1.0" viewBox="0 0 4091.25 4091.25"><defs><clipPath id="a"><path d="M.328.156h4089.77v4089.77H.328Zm0 0"/></clipPath><clipPath id="b"><path d="M2045.21.156C915.853.156.329 915.68.329 2045.04c0 1129.36 915.524 2044.887 2044.883 2044.887 1129.36 0 2044.887-915.528 2044.887-2044.887C4090.098 915.68 3174.57.156 2045.21.156Zm0 0"/></clipPath><clipPath id="c"><path d="M1000 722.457h2529v2645.516H1000Zm0 0"/></clipPath></defs><g clip-path="url(#a)"><g clip-path="url(#b)"><path fill="#ccc" d="M.328.156h4089.77v4089.77H.328Zm0 0"/></g></g><g clip-path="url(#c)"><path fill="#545454" d="M3528.473 1048.398v1363.73c-257.168 188.395-623.965 243.356-943.149 139.606-85.527-27.629-170.758-67.304-253.054-105.804-109.922-51.14-223.368-103.75-345.047-133.14-74.36-17.93-147.54-25.864-218.961-25.864-242.766 0-464.664 91.402-649.828 191.332v830.582c0 32.328-26.45 58.781-58.782 58.781-32.328 0-58.78-26.453-58.78-58.781V781.238c0-32.328 26.452-58.781 58.78-58.781 32.332 0 58.782 26.453 58.782 58.781v326.239c241.004-137.844 527.27-261.286 841.457-185.75 109.921 26.453 213.375 74.652 322.71 125.496 85.82 39.972 174.286 81.12 266.278 111.097 326.531 106.102 698.617 62.016 979.594-109.922Zm0 0"/></g></svg>