<?xml version="1.0" encoding="UTF-8" standalone="no"?>
<!-- Svg Vector Icons : http://www.onlinewebfonts.com/icon -->

<svg
   version="1.1"
   x="0px"
   y="0px"
   viewBox="0 0 256 256"
   enable-background="new 0 0 256 256"
   xml:space="preserve"
   id="svg3"
   sodipodi:docname="sort_by_support.svg"
   inkscape:version="1.3 (0e150ed6c4, 2023-07-21)"
   xmlns:inkscape="http://www.inkscape.org/namespaces/inkscape"
   xmlns:sodipodi="http://sodipodi.sourceforge.net/DTD/sodipodi-0.dtd"
   xmlns="http://www.w3.org/2000/svg"
   xmlns:svg="http://www.w3.org/2000/svg"><defs
   id="defs3" /><sodipodi:namedview
   id="namedview3"
   pagecolor="#ffffff"
   bordercolor="#000000"
   borderopacity="0.25"
   inkscape:showpageshadow="2"
   inkscape:pageopacity="0.0"
   inkscape:pagecheckerboard="0"
   inkscape:deskcolor="#d1d1d1"
   inkscape:zoom="2.2766696"
   inkscape:cx="243.99676"
   inkscape:cy="165.15352"
   inkscape:window-width="1920"
   inkscape:window-height="992"
   inkscape:window-x="-8"
   inkscape:window-y="-8"
   inkscape:window-maximized="1"
   inkscape:current-layer="g2" />&#10;<metadata
   id="metadata1"> Svg Vector Icons : http://www.onlinewebfonts.com/icon </metadata>&#10;<g
   id="g3"><g
     id="g2"><path
       fill="#000000"
       d="M76.5,95.6c0-4,3.2-7.6,7.2-7.6c28.4,0,56.9,0,85.3,0c4,0,7.6,3.6,7.6,8c0,22,0,44,0,66.1c0,4-3.2,7.6-7.2,7.6c-4.4,0-8.8,0-13.6,0c-2,5.2-4.4,10.4-6.4,15.6c-6.8-5.2-13.6-10.4-20.8-15.6c-15.2,0-30,0-45.3,0c-4,0-7.6-3.6-7.6-7.6C76.5,139.7,76.5,117.6,76.5,95.6z"
       id="path2" /><path
       fill-rule="nonzero"
       d="m 127.6633,0.70127183 c 35.02206,0 66.72965,14.24998017 89.67804,37.28563317 22.95333,23.030673 37.15239,54.851977 37.15239,89.999615 0,35.14266 -14.19906,66.96893 -37.15239,89.99961 -22.94839,23.03565 -54.65598,37.28563 -89.67804,37.28563 -35.022041,0 -66.72964,-14.24998 -89.678024,-37.28563 C 15.03194,194.95545 0.83288492,163.12918 0.83288492,127.98652 0.83288492,92.838882 15.03194,61.017578 37.985276,37.986905 60.93366,14.951252 92.641259,0.70127183 127.6633,0.70127183 Z M 202.03251,53.350625 C 183.00299,34.252875 156.70549,22.434234 127.6633,22.434234 c -29.042175,0 -55.339679,11.818641 -74.369194,30.916391 -19.029514,19.097771 -30.805913,45.489551 -30.805913,74.635895 0,29.14632 11.776399,55.53812 30.805913,74.63589 19.029515,19.09776 45.327019,30.91639 74.369194,30.91639 29.04219,0 55.33969,-11.81863 74.36921,-30.91639 19.02951,-19.09777 30.80591,-45.48957 30.80591,-74.63589 0,-29.146344 -11.7764,-55.538124 -30.80591,-74.635895 z"
       id="path1"
       sodipodi:nodetypes="scscscscssssssssss"
       style="stroke-width:0.496318" /></g></g>&#10;</svg>
