<svg xmlns="http://www.w3.org/2000/svg" xmlns:xlink="http://www.w3.org/1999/xlink" width="116" zoomAndPan="magnify" viewBox="0 0 109.5 109.499997" height="116" preserveAspectRatio="xMidYMid meet" version="1.0"><defs><clipPath id="3f159b7334"><path d="M 0.726562 0.136719 L 108.984375 0.136719 L 108.984375 108.390625 L 0.726562 108.390625 Z M 0.726562 0.136719 " clip-rule="nonzero"/></clipPath><clipPath id="b4bd8503fe"><path d="M 16.40625 0.136719 L 93.304688 0.136719 C 101.964844 0.136719 108.984375 7.15625 108.984375 15.8125 L 108.984375 92.710938 C 108.984375 101.371094 101.964844 108.390625 93.304688 108.390625 L 16.40625 108.390625 C 7.746094 108.390625 0.726562 101.371094 0.726562 92.710938 L 0.726562 15.8125 C 0.726562 7.15625 7.746094 0.136719 16.40625 0.136719 Z M 16.40625 0.136719 " clip-rule="nonzero"/></clipPath><clipPath id="2ea8cbe584"><path d="M 11 20 L 95 20 L 95 86 L 11 86 Z M 11 20 " clip-rule="nonzero"/></clipPath><clipPath id="d541d49a98"><path d="M 22.476562 9.835938 L 98.53125 21.183594 L 87.1875 97.242188 L 11.128906 85.894531 Z M 22.476562 9.835938 " clip-rule="nonzero"/></clipPath><clipPath id="bd2dfe66a8"><path d="M 22.476562 9.835938 L 98.53125 21.183594 L 87.1875 97.242188 L 11.128906 85.894531 Z M 22.476562 9.835938 " clip-rule="nonzero"/></clipPath></defs><g clip-path="url(#3f159b7334)"><g clip-path="url(#b4bd8503fe)"><path fill="#005c94" d="M 0.726562 0.136719 L 108.984375 0.136719 L 108.984375 108.390625 L 0.726562 108.390625 Z M 0.726562 0.136719 " fill-opacity="1" fill-rule="nonzero"/></g></g><g clip-path="url(#2ea8cbe584)"><g clip-path="url(#d541d49a98)"><g clip-path="url(#bd2dfe66a8)"><path fill="#fadf7c" d="M 91.960938 20.203125 C 92.707031 30.347656 93.453125 40.496094 94.195312 50.640625 L 83.96875 43.53125 L 59.078125 79.179688 C 51.453125 74.144531 43.828125 69.109375 36.203125 64.074219 C 27.839844 71.367188 19.480469 78.660156 11.121094 85.949219 C 18.757812 74.679688 26.398438 63.410156 34.039062 52.140625 C 40.738281 56.53125 47.441406 60.925781 54.140625 65.316406 L 73.339844 36.140625 C 68.738281 32.941406 63.113281 29.027344 63.113281 29.027344 C 72.730469 26.085938 82.347656 23.144531 91.960938 20.203125 Z M 91.960938 20.203125 " fill-opacity="1" fill-rule="nonzero"/></g></g></g></svg>