<svg xmlns="http://www.w3.org/2000/svg" width="116" viewBox="0 0 45.75 45.75" height="116" version="1.0"><defs><clipPath id="a"><path d="M.621.219H45.38v44.754H.62Zm0 0"/></clipPath><clipPath id="b"><path d="M23 .219C10.64.219.621 10.234.621 22.594S10.641 44.973 23 44.973c12.36 0 22.379-10.02 22.379-22.38C45.379 10.235 35.359.22 23 .22Zm0 0"/></clipPath><clipPath id="c"><path d="M7.836 9.18h26.828v27.015H7.836Zm0 0"/></clipPath></defs><g clip-path="url(#a)"><g clip-path="url(#b)"><path fill="#2b3e74" d="M.621.219H45.38v44.754H.62Zm0 0"/></g></g><g clip-path="url(#c)"><path fill="#fff" d="M16.652 9.273a.408.408 0 0 1 .434-.05c.176.07.266.199.27.39v3.028h8.222c.598 0 1.188.058 1.774.175a9.21 9.21 0 0 1 1.703.516 9.186 9.186 0 0 1 2.949 1.969 9.106 9.106 0 0 1 1.969 2.949 8.97 8.97 0 0 1 .691 3.48v13.848c0 .117-.039.223-.125.305a.417.417 0 0 1-.305.129H27.31a.404.404 0 0 1-.305-.13.41.41 0 0 1-.129-.304V23.895c0-.52-.098-1.016-.297-1.493a3.89 3.89 0 0 0-3.598-2.406h-5.625v3.465a.4.4 0 0 1-.246.387.393.393 0 0 1-.187.047.446.446 0 0 1-.27-.098L8 16.875a.416.416 0 0 1-.164-.34c0-.137.055-.25.164-.336Zm0 0"/></g></svg>