<svg xmlns="http://www.w3.org/2000/svg" xmlns:xlink="http://www.w3.org/1999/xlink" width="117" zoomAndPan="magnify" viewBox="0 0 35.25 36.000001" height="117" preserveAspectRatio="xMidYMid meet" version="1.0"><defs><clipPath id="e9bb049165"><path d="M 0.164062 0.351562 L 34.410156 0.351562 L 34.410156 34.691406 L 0.164062 34.691406 Z M 0.164062 0.351562 " clip-rule="nonzero"/></clipPath><clipPath id="ae29d6e8aa"><path d="M 3.527344 3.710938 L 30.972656 3.710938 L 30.972656 31.15625 L 3.527344 31.15625 Z M 3.527344 3.710938 " clip-rule="nonzero"/></clipPath><clipPath id="b32fa489ef"><path d="M 17.25 3.710938 C 9.671875 3.710938 3.527344 9.855469 3.527344 17.433594 C 3.527344 25.015625 9.671875 31.15625 17.25 31.15625 C 24.828125 31.15625 30.972656 25.015625 30.972656 17.433594 C 30.972656 9.855469 24.828125 3.710938 17.25 3.710938 Z M 17.25 3.710938 " clip-rule="nonzero"/></clipPath><clipPath id="bcba75cbf2"><path d="M 5.511719 7.683594 L 28.796875 7.683594 L 28.796875 30.964844 L 5.511719 30.964844 Z M 5.511719 7.683594 " clip-rule="nonzero"/></clipPath></defs><g clip-path="url(#e9bb049165)"><path fill="#000000" d="M 1.859375 0.335938 C 1.636719 0.335938 1.421875 0.382812 1.214844 0.476562 C 1.011719 0.566406 0.835938 0.699219 0.6875 0.871094 C 0.539062 1.039062 0.433594 1.230469 0.371094 1.445312 C 0.304688 1.664062 0.289062 1.882812 0.320312 2.105469 L 0.320312 9.671875 C 0.320312 9.882812 0.355469 10.082031 0.433594 10.273438 C 0.511719 10.46875 0.621094 10.636719 0.769531 10.785156 C 0.914062 10.933594 1.082031 11.050781 1.277344 11.128906 C 1.46875 11.210938 1.667969 11.25 1.875 11.25 C 2.082031 11.25 2.28125 11.210938 2.476562 11.128906 C 2.667969 11.050781 2.835938 10.933594 2.980469 10.785156 C 3.128906 10.636719 3.238281 10.46875 3.316406 10.273438 C 3.394531 10.082031 3.433594 9.882812 3.429688 9.671875 L 3.429688 5.65625 L 10.101562 12.328125 C 10.246094 12.476562 10.414062 12.59375 10.605469 12.675781 C 10.796875 12.757812 10.996094 12.800781 11.207031 12.804688 C 11.414062 12.804688 11.613281 12.769531 11.808594 12.6875 C 12 12.609375 12.171875 12.496094 12.320312 12.347656 C 12.46875 12.203125 12.582031 12.03125 12.660156 11.835938 C 12.738281 11.644531 12.777344 11.441406 12.773438 11.234375 C 12.773438 11.023438 12.730469 10.824219 12.648438 10.632812 C 12.566406 10.441406 12.449219 10.273438 12.296875 10.128906 L 5.625 3.457031 L 9.644531 3.457031 C 9.851562 3.460938 10.054688 3.421875 10.246094 3.347656 C 10.4375 3.269531 10.609375 3.15625 10.757812 3.011719 C 10.90625 2.863281 11.019531 2.695312 11.101562 2.503906 C 11.179688 2.3125 11.222656 2.113281 11.222656 1.902344 C 11.222656 1.695312 11.179688 1.496094 11.101562 1.304688 C 11.019531 1.113281 10.90625 0.945312 10.757812 0.796875 C 10.609375 0.652344 10.4375 0.539062 10.246094 0.460938 C 10.054688 0.382812 9.851562 0.347656 9.644531 0.351562 L 2.058594 0.351562 C 1.992188 0.339844 1.925781 0.335938 1.859375 0.335938 Z M 32.921875 0.335938 C 32.863281 0.335938 32.808594 0.34375 32.75 0.351562 L 25.183594 0.351562 C 24.976562 0.347656 24.773438 0.382812 24.582031 0.460938 C 24.390625 0.539062 24.21875 0.652344 24.070312 0.796875 C 23.921875 0.945312 23.808594 1.113281 23.726562 1.304688 C 23.648438 1.496094 23.609375 1.695312 23.609375 1.902344 C 23.609375 2.113281 23.648438 2.3125 23.726562 2.503906 C 23.808594 2.695312 23.921875 2.863281 24.070312 3.011719 C 24.21875 3.15625 24.390625 3.269531 24.582031 3.347656 C 24.773438 3.421875 24.976562 3.460938 25.183594 3.457031 L 29.203125 3.457031 L 22.53125 10.128906 C 22.378906 10.273438 22.265625 10.441406 22.179688 10.632812 C 22.097656 10.824219 22.054688 11.023438 22.054688 11.234375 C 22.050781 11.441406 22.089844 11.644531 22.167969 11.835938 C 22.246094 12.03125 22.359375 12.203125 22.507812 12.347656 C 22.65625 12.496094 22.828125 12.609375 23.019531 12.6875 C 23.214844 12.769531 23.414062 12.804688 23.625 12.804688 C 23.832031 12.800781 24.03125 12.757812 24.222656 12.675781 C 24.414062 12.59375 24.582031 12.476562 24.726562 12.328125 L 31.398438 5.65625 L 31.398438 9.671875 C 31.394531 9.882812 31.433594 10.082031 31.511719 10.273438 C 31.589844 10.46875 31.699219 10.640625 31.847656 10.785156 C 31.992188 10.933594 32.160156 11.050781 32.351562 11.128906 C 32.546875 11.210938 32.746094 11.25 32.953125 11.25 C 33.160156 11.25 33.359375 11.210938 33.554688 11.128906 C 33.746094 11.050781 33.914062 10.933594 34.058594 10.785156 C 34.207031 10.640625 34.316406 10.46875 34.394531 10.273438 C 34.472656 10.082031 34.511719 9.882812 34.507812 9.671875 L 34.507812 2.101562 C 34.539062 1.875 34.519531 1.652344 34.453125 1.433594 C 34.386719 1.214844 34.277344 1.019531 34.125 0.851562 C 33.972656 0.679688 33.789062 0.550781 33.582031 0.460938 C 33.371094 0.371094 33.152344 0.328125 32.921875 0.335938 Z M 11.167969 22.089844 C 10.75 22.101562 10.390625 22.257812 10.101562 22.558594 L 3.429688 29.230469 L 3.429688 25.210938 C 3.433594 25.003906 3.394531 24.800781 3.316406 24.605469 C 3.234375 24.410156 3.121094 24.238281 2.972656 24.089844 C 2.824219 23.941406 2.652344 23.828125 2.457031 23.75 C 2.261719 23.671875 2.0625 23.632812 1.851562 23.636719 C 1.644531 23.640625 1.449219 23.683594 1.257812 23.765625 C 1.070312 23.847656 0.902344 23.960938 0.761719 24.109375 C 0.617188 24.257812 0.507812 24.425781 0.429688 24.617188 C 0.355469 24.808594 0.320312 25.007812 0.320312 25.210938 L 0.320312 32.746094 C 0.300781 32.867188 0.292969 32.992188 0.304688 33.113281 C 0.3125 33.238281 0.335938 33.359375 0.375 33.476562 C 0.410156 33.59375 0.460938 33.707031 0.527344 33.8125 C 0.589844 33.917969 0.667969 34.015625 0.753906 34.101562 C 0.84375 34.191406 0.9375 34.265625 1.046875 34.332031 C 1.152344 34.394531 1.261719 34.445312 1.378906 34.484375 C 1.5 34.523438 1.621094 34.546875 1.742188 34.554688 C 1.867188 34.5625 1.988281 34.558594 2.113281 34.535156 L 9.644531 34.535156 C 9.851562 34.539062 10.054688 34.5 10.246094 34.425781 C 10.4375 34.347656 10.609375 34.234375 10.757812 34.089844 C 10.90625 33.941406 11.019531 33.773438 11.101562 33.582031 C 11.179688 33.390625 11.222656 33.191406 11.222656 32.980469 C 11.222656 32.773438 11.179688 32.574219 11.101562 32.382812 C 11.019531 32.191406 10.90625 32.023438 10.757812 31.875 C 10.609375 31.730469 10.4375 31.617188 10.246094 31.539062 C 10.054688 31.460938 9.851562 31.425781 9.644531 31.429688 L 5.625 31.429688 L 12.296875 24.757812 C 12.527344 24.535156 12.671875 24.265625 12.738281 23.953125 C 12.800781 23.636719 12.769531 23.332031 12.644531 23.039062 C 12.519531 22.742188 12.324219 22.507812 12.054688 22.335938 C 11.785156 22.160156 11.488281 22.082031 11.167969 22.089844 Z M 23.613281 22.089844 C 23.296875 22.089844 23.007812 22.179688 22.746094 22.355469 C 22.484375 22.53125 22.292969 22.765625 22.175781 23.058594 C 22.054688 23.351562 22.027344 23.652344 22.09375 23.960938 C 22.160156 24.273438 22.304688 24.535156 22.53125 24.757812 L 29.203125 31.429688 L 25.183594 31.429688 C 24.976562 31.425781 24.773438 31.460938 24.582031 31.539062 C 24.390625 31.617188 24.21875 31.730469 24.070312 31.875 C 23.921875 32.023438 23.808594 32.191406 23.726562 32.382812 C 23.648438 32.574219 23.609375 32.773438 23.609375 32.980469 C 23.609375 33.191406 23.648438 33.390625 23.726562 33.582031 C 23.808594 33.773438 23.921875 33.941406 24.070312 34.089844 C 24.21875 34.234375 24.390625 34.347656 24.582031 34.425781 C 24.773438 34.5 24.976562 34.539062 25.183594 34.535156 L 32.714844 34.535156 C 32.839844 34.558594 32.960938 34.5625 33.085938 34.554688 C 33.207031 34.546875 33.328125 34.523438 33.449219 34.484375 C 33.566406 34.445312 33.675781 34.394531 33.785156 34.332031 C 33.890625 34.265625 33.984375 34.191406 34.074219 34.101562 C 34.160156 34.015625 34.238281 33.917969 34.300781 33.8125 C 34.367188 33.707031 34.417969 33.59375 34.453125 33.476562 C 34.492188 33.359375 34.515625 33.238281 34.523438 33.113281 C 34.535156 32.992188 34.527344 32.867188 34.507812 32.746094 L 34.507812 25.210938 C 34.511719 25.003906 34.472656 24.800781 34.394531 24.605469 C 34.3125 24.410156 34.199219 24.238281 34.050781 24.089844 C 33.902344 23.941406 33.730469 23.828125 33.535156 23.75 C 33.339844 23.671875 33.140625 23.632812 32.929688 23.636719 C 32.722656 23.640625 32.527344 23.683594 32.335938 23.765625 C 32.148438 23.847656 31.980469 23.960938 31.839844 24.109375 C 31.695312 24.257812 31.585938 24.425781 31.507812 24.617188 C 31.433594 24.808594 31.394531 25.007812 31.398438 25.210938 L 31.398438 29.230469 L 24.726562 22.558594 C 24.421875 22.246094 24.050781 22.089844 23.613281 22.089844 Z M 23.613281 22.089844 " fill-opacity="1" fill-rule="nonzero"/></g><g clip-path="url(#ae29d6e8aa)"><g clip-path="url(#b32fa489ef)"><path fill="#ffffff" d="M 3.527344 3.710938 L 30.972656 3.710938 L 30.972656 31.15625 L 3.527344 31.15625 Z M 3.527344 3.710938 " fill-opacity="1" fill-rule="nonzero"/></g></g><g clip-path="url(#bcba75cbf2)"><path stroke-linecap="butt" transform="matrix(0.970089, 0, 0, 0.970089, 5.513293, 7.683116)" fill="none" stroke-linejoin="miter" d="M 1.500334 5.299622 L 1.500334 14.838861 C 1.500334 15.346224 1.596974 15.833454 1.790256 16.300551 C 1.983537 16.771674 2.261379 17.182397 2.619755 17.540772 C 2.978131 17.899148 3.388853 18.17699 3.859977 18.370271 C 4.327073 18.563553 4.814303 18.660193 5.321667 18.660193 L 7.23032 18.660193 L 7.23032 21.519146 L 13.000573 18.660193 L 18.730558 18.660193 C 19.237922 18.660193 19.725152 18.563553 20.192248 18.370271 C 20.659345 18.17699 21.074094 17.899148 21.43247 17.540772 C 21.790846 17.182397 22.064661 16.771674 22.257943 16.300551 C 22.451224 15.833454 22.551891 15.346224 22.551891 14.838861 L 22.551891 5.299622 C 22.551891 4.792259 22.451224 4.305029 22.257943 3.837932 C 22.064661 3.370836 21.790846 2.956086 21.43247 2.59771 C 21.074094 2.239334 20.659345 1.965519 20.192248 1.772238 C 19.725152 1.57493 19.237922 1.478289 18.730558 1.478289 L 5.321667 1.478289 C 4.814303 1.478289 4.327073 1.57493 3.859977 1.772238 C 3.388853 1.965519 2.978131 2.239334 2.619755 2.59771 C 2.261379 2.956086 1.983537 3.370836 1.790256 3.837932 C 1.596974 4.305029 1.500334 4.792259 1.500334 5.299622 Z M 1.500334 5.299622 " stroke="#020202" stroke-width="1.91" stroke-opacity="1" stroke-miterlimit="10"/></g></svg>