<svg xmlns="http://www.w3.org/2000/svg" width="116" viewBox="0 0 45 45.75" height="116" version="1.0"><defs><clipPath id="a"><path d="M.121.45h44.754v44.757H.121Zm0 0"/></clipPath><clipPath id="b"><path d="M22.5.45C10.14.45.121 10.468.121 22.827c0 12.36 10.02 22.379 22.379 22.379 12.36 0 22.379-10.02 22.379-22.379C44.879 10.468 34.859.45 22.5.45Zm0 0"/></clipPath><clipPath id="c"><path d="M9.082 10.914H36v26.832H9.082Zm0 0"/></clipPath></defs><g clip-path="url(#a)"><g clip-path="url(#b)"><path fill="#2b3e74" d="M.121.45H44.88v44.757H.12Zm0 0"/></g></g><g clip-path="url(#c)"><path fill="#fff" d="M27.094 37.652a.4.4 0 0 1-.43.051.395.395 0 0 1-.27-.387v-3.03h-8.222a9.011 9.011 0 0 1-1.774-.177 8.921 8.921 0 0 1-1.703-.515 9.075 9.075 0 0 1-4.918-4.918 8.97 8.97 0 0 1-.52-1.707 8.972 8.972 0 0 1-.175-1.77V11.348c0-.118.043-.22.129-.305a.417.417 0 0 1 .305-.129h6.925a.41.41 0 0 1 .305.129.417.417 0 0 1 .129.305v11.687c0 .516.098 1.012.297 1.488a3.89 3.89 0 0 0 3.598 2.406h5.625v-3.464a.4.4 0 0 1 .246-.387.35.35 0 0 1 .187-.043c.098 0 .188.031.266.094l8.656 6.926c.11.086.164.199.164.336 0 .136-.055.25-.164.336Zm0 0"/></g></svg>