<svg xmlns="http://www.w3.org/2000/svg" width="512" height="512"><g fill-rule="evenodd" clip-rule="evenodd"><path fill="#014a7a" d="M467.24 486H46.357l-14.74-11.525V35.625L46.357 26h397.502l36.524 34.134v414.341z"/><path fill="#027bc7" d="M106.837 176.687h244.936c12.383 0 22.531-10.128 22.531-22.521V26H84.313v128.166c0 12.393 10.139 22.521 22.524 22.521z"/><path fill="#ede7dd" d="M403.104 201.005H111.69c-12.23 0-22.245 10.011-22.245 22.248v217.306c0 12.232 10.015 22.248 22.245 22.248h291.413c12.209 0 22.202-10.016 22.202-22.248V223.253c.001-12.237-9.992-22.248-22.201-22.248zm-282.678 56.364h270.237v11.123H120.426zm269.303 150.002H119.492v-11.125h270.237zm1.878-67.558H121.37V328.69h270.237z"/><path fill="#bcbbc3" d="M148.093 26v128.166c0 12.393 10.139 22.521 22.52 22.521h181.16c12.383 0 22.531-10.128 22.531-22.521V26zm184.395 129.97h-55.369V47.115h55.369z"/></g></svg>