<!DOCTYPE svg PUBLIC "-//W3C//DTD SVG 1.1//EN" "http://www.w3.org/Graphics/SVG/1.1/DTD/svg11.dtd">

<!-- Uploaded to: SVG Repo, www.svgrepo.com, Transformed by: SVG Repo Mixer Tools -->
<svg width="116px" height="116px" viewBox="0 0 36 36" xmlns="http://www.w3.org/2000/svg" xmlns:xlink="http://www.w3.org/1999/xlink" aria-hidden="true" role="img" class="iconify iconify--twemoji" preserveAspectRatio="xMidYMid meet" fill="#000000">

<g id="SVGRepo_bgCarrier" stroke-width="0"/>

<g id="SVGRepo_tracerCarrier" stroke-linecap="round" stroke-linejoin="round"/>

<g id="SVGRepo_iconCarrier">

<path fill="#30577e" d="M4 36s-4 0-4-4V4s0-4 4-4h26c1 0 2 1 2 1l3 3s1 1 1 2v26s0 4-4 4H4z"/>

<path fill="#55ACEE" d="M5 19v-1s0-2 2-2h21c2 0 2 2 2 2v1H5z"/>

<path fill="#E1E8ED" d="M5 32.021V19h25v13s0 2-2 2H7c-2 0-2-1.979-2-1.979zM10 3s0-1 1-1h18c1.048 0 1 1 1 1v10s0 1-1 1H11s-1 0-1-1V3zm12 10h5V3h-5v10z"/>

</g>

</svg>